<?xml version="1.0" encoding="UTF-8"?>
<svg version="1.1" xmlns="http://www.w3.org/2000/svg" width="150" height="150">
<path d="M0 0 C49.5 0 99 0 150 0 C150 49.5 150 99 150 150 C100.5 150 51 150 0 150 C0 100.5 0 51 0 0 Z " fill="#FDFDFD" transform="translate(0,0)"/>
<path d="M0 0 C4.79718979 -0.27495205 8.12246759 0.59487113 12.5625 2.375 C21.28265719 5.65176896 29.68196076 6.80745937 38.91796875 7.3828125 C56.24042172 8.48490201 71.6663688 10.29277774 83.91015625 24.1640625 C88.72068472 30.85388834 91.65646385 38.68479119 91 47 C88.46761692 43.88494471 86.85489513 40.70504639 85.1875 37.0625 C82.18354431 30.97299971 79.73501337 27.53634998 73.3125 24.89453125 C69.48575155 23.86112866 65.9280239 23.74235672 62 23.8125 C60.97132812 23.8134668 60.97132812 23.8134668 59.921875 23.81445312 C57.02943189 23.83929281 54.25426197 23.95340286 51.40625 24.4753418 C46.8216847 25.18149366 42.25548927 25.36103078 37.625 25.5625 C36.69816406 25.60568359 35.77132812 25.64886719 34.81640625 25.69335938 C32.54439706 25.79876186 30.27229075 25.90088606 28 26 C28.73915649 26.73027405 29.47831299 27.4605481 30.23986816 28.21295166 C37.19631378 35.08839432 44.14223706 41.97431134 51.07793427 48.87068558 C54.64419623 52.41605175 58.21409209 55.95759291 61.79248047 59.49072266 C65.24415138 62.89900794 68.68602676 66.31690467 72.1212616 69.74175262 C73.43513631 71.04822295 74.75253294 72.35116103 76.07344055 73.65052032 C77.91967133 75.46781508 79.75310308 77.29714313 81.58398438 79.12988281 C82.13567795 79.66719528 82.68737152 80.20450775 83.25578308 80.75810242 C87 84.54379135 87 84.54379135 87 89 C83.60140297 87.53033642 81.35036291 85.61962486 78.75 83 C77.69039062 81.948125 77.69039062 81.948125 76.609375 80.875 C75 79 75 79 75 77 C74.34 77 73.68 77 73 77 C73 78.65 73 80.3 73 82 C67.72 82 62.44 82 57 82 C56.5875 80.7625 56.175 79.525 55.75 78.25 C54.13014745 73.94560309 52.20974676 71.35230622 48.23828125 68.921875 C43.7218113 67.06168843 38.78259042 67.48712167 34 68 C29.11050861 70.270121 26.23736252 73.09501294 24 78 C23.25236305 84.59432594 22.78407299 91.51929489 27 97 C33.16657329 101.75340024 38.37755391 102.83440978 46 102 C49.52598124 100.80495267 52.94414498 99.41688932 55.2109375 96.375 C58.17283303 94.09860867 61.61535584 94.69082871 65.1875 94.8125 C66.31188477 94.83280273 66.31188477 94.83280273 67.45898438 94.85351562 C69.30629767 94.88881461 71.15324066 94.94262083 73 95 C71.98870637 103.91589489 67.98559302 108.72295685 61.1875 114.3125 C50.93980639 119.73774956 38.44915678 121.02917334 27.12109375 118.30859375 C24.89042661 117.3814121 23.00490138 116.3435335 21 115 C20.29617187 114.55269531 19.59234375 114.10539062 18.8671875 113.64453125 C11.6179521 108.6556663 7.37406689 102.44485513 5 94 C4.58493226 91.00670377 4.52195608 88.0814131 4.5625 85.0625 C4.57007324 84.27053223 4.57764648 83.47856445 4.58544922 82.66259766 C4.75414416 76.68685657 5.63457419 72.04289662 9 67 C9.42410156 66.30777344 9.84820312 65.61554688 10.28515625 64.90234375 C15.05965246 57.78714745 21.73619413 53.20894095 30 51 C32.95449686 50.64548824 35.90278646 50.4959036 38.875 50.375 C40.050625 50.31699219 40.050625 50.31699219 41.25 50.2578125 C43.16631367 50.16433378 45.08312319 50.08111505 47 50 C46.515811 49.5860498 46.03162201 49.17209961 45.53276062 48.74560547 C40.48290506 44.38394043 35.67820474 39.83852302 30.95703125 35.125 C30.22554367 34.39684082 29.49405609 33.66868164 28.74040222 32.91845703 C27.20722305 31.39030413 25.67536262 29.86082709 24.14477539 28.33007812 C21.81351262 26.00101167 19.47435026 23.68007818 17.13476562 21.359375 C15.63753132 19.86507364 14.14077021 18.37029799 12.64453125 16.875 C11.95172562 16.18937988 11.25891998 15.50375977 10.54512024 14.79736328 C0 4.20267373 0 4.20267373 0 0 Z " fill="#0B0807" transform="translate(34,18)"/>
<path d="M0 0 C7.62889676 2.89371946 11.50381764 8.98651032 15 16 C16.71366442 20.61308716 17.24589147 25.0821706 17 30 C14.46761692 26.88494471 12.85489513 23.70504639 11.1875 20.0625 C8.01146772 13.62417284 5.45783951 10.34471536 -1.375 7.6875 C-2.24125 7.460625 -3.1075 7.23375 -4 7 C-3.39816251 4.97954558 -2.72693904 2.97888961 -2 1 C-1.34 0.67 -0.68 0.34 0 0 Z " fill="#0F0F0E" transform="translate(108,35)"/>
<path d="M0 0 C3.1898627 1.06328757 3.72375598 1.58724065 5.7265625 4.09765625 C9.05149211 8.12067714 12.66178287 11.77467099 16.375 15.4375 C17.01566406 16.07365234 17.65632813 16.70980469 18.31640625 17.36523438 C19.87530879 18.91250332 21.43651416 20.45736492 23 22 C22.34 22.33 21.68 22.66 21 23 C20.67 23.66 20.34 24.32 20 25 C17.13566039 22.25945167 14.28816226 19.50259334 11.45507812 16.72973633 C10.01510976 15.32721681 8.56228936 13.93793206 7.109375 12.54882812 C6.20703125 11.66259766 5.3046875 10.77636719 4.375 9.86328125 C3.53710938 9.05157471 2.69921875 8.23986816 1.8359375 7.40356445 C-0.26699378 4.65045828 -0.42074595 3.37911591 0 0 Z " fill="#121212" transform="translate(59,42)"/>
<path d="M0 0 C4.11118347 3.3281009 5.69329052 7.8296653 6.41015625 12.90234375 C6.65677459 15.60125147 6.85807914 18.29371602 7 21 C4.51372483 17.9377256 2.90010596 14.8542946 1.3125 11.25 C0.87550781 10.26515625 0.43851562 9.2803125 -0.01171875 8.265625 C-0.50091797 7.14414062 -0.50091797 7.14414062 -1 6 C-0.34 5.67 0.32 5.34 1 5 C0.34 4.67 -0.32 4.34 -1 4 C-0.67 2.68 -0.34 1.36 0 0 Z " fill="#202020" transform="translate(118,44)"/>
<path d="M0 0 C1.1055189 0.93590504 2.20935453 1.87379858 3.3125 2.8125 C3.92738281 3.33457031 4.54226562 3.85664062 5.17578125 4.39453125 C5.77777344 4.92433594 6.37976563 5.45414062 7 6 C7.57105469 6.47824219 8.14210938 6.95648438 8.73046875 7.44921875 C10 9 10 9 10 13 C6.89557969 11.6095501 4.6343557 9.98428402 2.1875 7.625 C1.56230469 7.03976563 0.93710938 6.45453125 0.29296875 5.8515625 C-1 4 -1 4 -0.69921875 1.7734375 C-0.35310547 0.89558594 -0.35310547 0.89558594 0 0 Z " fill="#212121" transform="translate(111,94)"/>
<path d="M0 0 C2.875 -0.125 2.875 -0.125 6 0 C6.66 0.66 7.32 1.32 8 2 C7.34 3.32 6.68 4.64 6 6 C4.125 5.8125 4.125 5.8125 2 5 C0.75 2.4375 0.75 2.4375 0 0 Z " fill="#1B1A18" transform="translate(34,18)"/>
<path d="M0 0 C1.98 1.65 3.96 3.3 6 5 C5.01 5.495 5.01 5.495 4 6 C3.67 6.66 3.34 7.32 3 8 C1.35 6.02 -0.3 4.04 -2 2 C-1.34 1.34 -0.68 0.68 0 0 Z " fill="#242424" transform="translate(76,59)"/>
<path d="M0 0 C2.31 0.33 4.62 0.66 7 1 C6.34 1.66 5.68 2.32 5 3 C4.01 3 3.02 3 2 3 C2 3.66 2 4.32 2 5 C1.01 4.67 0.02 4.34 -1 4 C-0.67 2.68 -0.34 1.36 0 0 Z M-3 4 C-2.34 4 -1.68 4 -1 4 C-1.33 4.99 -1.66 5.98 -2 7 C-2.33 6.01 -2.66 5.02 -3 4 Z " fill="#0F0E0D" transform="translate(41,20)"/>
<path d="M0 0 C0.33 0 0.66 0 1 0 C1.33 3.63 1.66 7.26 2 11 C-1.67647059 6.09803922 -1.67647059 6.09803922 -2 2 C-1.34 1.34 -0.68 0.68 0 0 Z " fill="#222222" transform="translate(123,54)"/>
<path d="M0 0 C1.2065625 0.0309375 1.2065625 0.0309375 2.4375 0.0625 C2.7675 0.7225 3.0975 1.3825 3.4375 2.0625 C0.7975 3.0525 -1.8425 4.0425 -4.5625 5.0625 C-3.31710123 0.08090491 -3.31710123 0.08090491 0 0 Z " fill="#171615" transform="translate(92.5625,129.9375)"/>
<path d="M0 0 C3.73639216 1.24546405 4.18756513 2.63404953 6 6 C3 6 3 6 0 4 C0 2.68 0 1.36 0 0 Z " fill="#232221" transform="translate(59,42)"/>
<path d="M0 0 C1.32 0 2.64 0 4 0 C3.67 1.65 3.34 3.3 3 5 C2.34 5 1.68 5 1 5 C0.67 3.35 0.34 1.7 0 0 Z " fill="#121212" transform="translate(119,51)"/>
</svg>
