<svg width="64" height="64" viewBox="0 0 64 64" fill="none" xmlns="http://www.w3.org/2000/svg">
<style>
path { fill: black; }
@media (prefers-color-scheme: dark) { path { fill: white; } }
</style>
<path d="M12.8583 6.62952C12.3817 7.4125 14.7306 10.1359 23.4455 18.8508C28.3817 23.787 32.4328 27.8721 32.4328 27.9402C32.4328 28.0082 31.3094 28.0763 29.9477 28.0763C23.5477 28.0763 18.4072 31.004 16.0924 35.9742C12.8924 42.8508 14.9689 51.1912 20.8583 54.9699C23.0711 56.3997 26.5094 57.3529 29.403 57.3529C32.1264 57.3529 36.4498 56.2976 38.4243 55.1402C40.3647 53.9827 42.4753 51.5317 43.1221 49.6253C44.0072 47.0721 44.0753 47.1402 40.3306 47.1402C37.3349 47.1402 36.8923 47.2082 36.3136 47.8551C34.2711 50.1699 29.3689 50.9189 26.1009 49.387C22.4923 47.6848 21.1306 43.1912 23.037 39.1402C23.9562 37.1317 24.603 36.5189 26.6455 35.5997C30.5945 33.7955 35.2583 35.7359 36.586 39.6848L37.0966 41.1827H40.4668C43.7009 41.1827 43.837 41.1487 43.9392 40.3997C44.0072 39.9912 44.1434 39.6508 44.2455 39.6508C44.3477 39.6508 45.403 40.7402 46.6285 42.0338C48.8413 44.4168 49.7945 44.9614 49.7945 43.838C49.7945 43.4976 43.9732 37.404 36.7902 30.221L23.7519 17.1827H27.1562C29.0626 17.1827 32.3306 16.9444 34.4753 16.638C40.9775 15.7189 44.7221 16.4678 47.037 19.0891C47.7519 19.9061 48.9434 21.8806 49.6583 23.4806C51.0881 26.5785 51.7009 27.1572 51.3604 25.0465C50.4072 18.9189 46.8668 14.3231 41.2838 11.838C38.7306 10.7146 37.3689 10.4423 31.8881 10.0338C25.0796 9.55718 22.186 9.08059 18.1349 7.78697C13.0626 6.22101 13.0966 6.22102 12.8583 6.62952Z"/>
</svg>
