<svg version="1.1" id="Layer_1" xmlns="http://www.w3.org/2000/svg" xmlns:xlink="http://www.w3.org/1999/xlink" x="0px" y="0px"
	 width="100%" viewBox="0 0 150 150" enable-background="new 0 0 150 150" xml:space="preserve">
<path fill="#FEFDFD" opacity="1.000000" stroke="none" 
	d="
M94.000000,151.000000 
	C62.666668,151.000000 31.833334,151.000000 1.000000,151.000000 
	C1.000000,101.000000 1.000000,51.000000 1.000000,1.000000 
	C51.000000,1.000000 101.000000,1.000000 151.000000,1.000000 
	C151.000000,51.000000 151.000000,101.000000 151.000000,151.000000 
	C132.166672,151.000000 113.333336,151.000000 94.000000,151.000000 
M43.115128,20.434917 
	C40.665649,19.822487 38.216167,19.210054 35.766689,18.597624 
	C35.405838,19.151388 35.044987,19.705151 34.684139,20.258913 
	C48.530163,38.288227 65.857285,53.147121 82.273705,69.674202 
	C53.477943,70.389862 39.613499,81.806671 39.563053,104.088608 
	C39.519352,123.390961 53.277905,137.468399 72.583237,138.160294 
	C91.773270,138.848022 107.079613,129.136322 107.620018,114.267586 
	C105.142448,114.267586 102.672493,114.376274 100.215523,114.243980 
	C95.694580,114.000565 91.804268,114.369225 87.999535,117.874878 
	C82.692993,122.764275 75.812820,122.673775 69.108582,120.694763 
	C61.524834,118.456131 56.851086,111.210732 57.469616,102.965393 
	C58.140011,94.028580 63.756363,87.327431 71.704468,85.981102 
	C80.622665,84.470444 87.481445,87.971848 90.875526,95.815811 
	C91.522705,97.311493 92.012978,98.875061 92.618088,100.522942 
	C97.741127,100.522942 102.712067,100.522942 107.924866,100.522942 
	C108.263412,99.280853 108.607689,98.017761 109.426384,95.014069 
	C114.104095,99.843964 117.928452,103.792747 121.752815,107.741531 
	C122.105942,107.505051 122.459076,107.268570 122.812202,107.032097 
	C121.791084,105.544815 120.973755,103.853271 119.718346,102.600838 
	C100.260994,83.189613 80.746841,63.835312 61.654034,44.873249 
	C70.937508,44.016254 80.180809,43.080975 89.440041,42.346622 
	C93.413094,42.031521 97.434181,41.873573 101.407234,42.101410 
	C109.444206,42.562298 115.717346,46.032982 119.357117,53.549316 
	C121.032555,57.009174 122.813995,60.417698 124.547371,63.849495 
	C124.944130,60.163620 124.921524,56.564548 123.704666,53.428944 
	C117.495247,37.428452 104.703033,29.867432 88.475632,27.958836 
	C73.477760,26.194851 58.181911,26.573624 43.115128,20.434917 
z"/>
<path fill="#0C0A09" opacity="1.000000" stroke="none" 
	d="
M43.482880,20.595238 
	C58.181911,26.573624 73.477760,26.194851 88.475632,27.958836 
	C104.703033,29.867432 117.495247,37.428452 123.704666,53.428944 
	C124.921524,56.564548 124.944130,60.163620 124.547371,63.849495 
	C122.813995,60.417698 121.032555,57.009174 119.357117,53.549316 
	C115.717346,46.032982 109.444206,42.562298 101.407234,42.101410 
	C97.434181,41.873573 93.413094,42.031521 89.440041,42.346622 
	C80.180809,43.080975 70.937508,44.016254 61.654034,44.873249 
	C80.746841,63.835312 100.260994,83.189613 119.718346,102.600838 
	C120.973755,103.853271 121.791084,105.544815 122.812202,107.032097 
	C122.459076,107.268570 122.105942,107.505051 121.752815,107.741531 
	C117.928452,103.792747 114.104095,99.843964 109.426384,95.014069 
	C108.607689,98.017761 108.263412,99.280853 107.924866,100.522942 
	C102.712067,100.522942 97.741127,100.522942 92.618088,100.522942 
	C92.012978,98.875061 91.522705,97.311493 90.875526,95.815811 
	C87.481445,87.971848 80.622665,84.470444 71.704468,85.981102 
	C63.756363,87.327431 58.140011,94.028580 57.469616,102.965393 
	C56.851086,111.210732 61.524834,118.456131 69.108582,120.694763 
	C75.812820,122.673775 82.692993,122.764275 87.999535,117.874878 
	C91.804268,114.369225 95.694580,114.000565 100.215523,114.243980 
	C102.672493,114.376274 105.142448,114.267586 107.620018,114.267586 
	C107.079613,129.136322 91.773270,138.848022 72.583237,138.160294 
	C53.277905,137.468399 39.519352,123.390961 39.563053,104.088608 
	C39.613499,81.806671 53.477943,70.389862 82.273705,69.674202 
	C65.857285,53.147121 48.530163,38.288227 34.684139,20.258913 
	C35.044987,19.705151 35.405838,19.151388 35.766689,18.597624 
	C38.216167,19.210054 40.665649,19.822487 43.482880,20.595238 
z"/>
</svg>